<svg width="24" height="24" viewBox="0 0 24 24" fill="none" xmlns="http://www.w3.org/2000/svg">
<path d="M14.0258 16.911V19.25C14.0257 19.7614 14.3147 20.2289 14.7722 20.4575L15.2944 20.7186C16.0546 21.0985 16.9492 21.0985 17.7094 20.7186L18.2316 20.4575C18.6891 20.2289 18.978 19.7614 18.9779 19.25V16.911" stroke="#323232" stroke-width="1" stroke-linecap="round" stroke-linejoin="round"/>
<path fill-rule="evenodd" clip-rule="evenodd" d="M12.4132 16.1177L15.5015 17.6604C16.1333 17.9755 16.8765 17.9755 17.5083 17.6604L20.5936 16.1177C20.8472 15.9913 21.0074 15.7323 21.0074 15.4489C21.0074 15.1656 20.8472 14.9066 20.5936 14.7802L17.5023 13.2375C16.8707 12.9214 16.1271 12.9214 15.4955 13.2375L12.4102 14.7802C12.1569 14.9072 11.9972 15.1665 11.9978 15.4499C11.9985 15.7332 12.1593 15.9918 12.4132 16.1177Z" stroke="#323232" stroke-width="1" stroke-linecap="round" stroke-linejoin="round"/>
<path d="M21.0037 15.4484V17.2492" stroke="#323232" stroke-width="1" stroke-linecap="round" stroke-linejoin="round"/>
<path d="M19.0029 10.9996V4.99708C19.0029 3.89205 18.1071 2.99625 17.0021 2.99625H4.99708C3.89205 2.99625 2.99625 3.89205 2.99625 4.99708V18.0025" stroke="#323232" stroke-width="1" stroke-linecap="round" stroke-linejoin="round"/>
<path d="M6.99792 2.99625V16.0017" stroke="#323232" stroke-width="1" stroke-linecap="round" stroke-linejoin="round"/>
<path d="M8.99875 16.0017H4.99708C3.89205 16.0017 2.99625 16.8975 2.99625 18.0025V18.0025C2.99625 19.1075 3.89205 20.0033 4.99708 20.0033H10.9996" stroke="#323232" stroke-width="1" stroke-linecap="round" stroke-linejoin="round"/>
</svg>
