<svg width="49" height="52" viewBox="0 0 49 52" fill="none" xmlns="http://www.w3.org/2000/svg">
<path d="M24.5 0.799805C17.148 0.799805 11.1667 6.78114 11.1667 14.1331C11.1667 21.4851 17.148 27.4665 24.5 27.4665C31.852 27.4665 37.8333 21.4851 37.8333 14.1331C37.8333 6.78114 31.852 0.799805 24.5 0.799805ZM24.5 22.1331C20.0893 22.1331 16.5 18.5438 16.5 14.1331C16.5 9.72247 20.0893 6.13314 24.5 6.13314C28.9107 6.13314 32.5 9.72247 32.5 14.1331C32.5 18.5438 28.9107 22.1331 24.5 22.1331ZM48.5 51.4665V48.7998C48.5 38.5091 40.124 30.1331 29.8333 30.1331H19.1667C8.87333 30.1331 0.5 38.5091 0.5 48.7998V51.4665H5.83333V48.7998C5.83333 41.4478 11.8147 35.4665 19.1667 35.4665H29.8333C37.1853 35.4665 43.1667 41.4478 43.1667 48.7998V51.4665H48.5Z" fill="#AAB6BD"/>
</svg>
